<svg height="511pt" viewBox="-60 1 511 511.999" width="511pt" xmlns="http://www.w3.org/2000/svg"><path d="m324.140625 0h-257.1875c-36.640625 0-66.453125 29.8125-66.453125 66.453125v258.585937c0 36.644532 29.8125 66.453126 66.453125 66.453126h5.933594v76.816406c0 24.089844 19.597656 43.691406 43.691406 43.691406h157.9375c24.09375 0 43.691406-19.601562 43.691406-43.691406v-76.816406h5.933594c36.644531 0 66.453125-29.808594 66.453125-66.453126v-258.585937c0-36.640625-29.808594-66.453125-66.453125-66.453125zm-221.253906 468.308594v-76.816406h21.222656v90.507812h-7.53125c-7.550781 0-13.691406-6.140625-13.691406-13.691406zm51.222656 13.691406v-90.507812h39.96875v90.507812zm134.101563-13.691406c0 7.550781-6.144532 13.691406-13.691407 13.691406h-50.441406v-90.507812h64.132813zm72.382812-143.269532c0 20.101563-16.351562 36.453126-36.453125 36.453126h-257.1875c-20.101563 0-36.453125-16.351563-36.453125-36.453126v-258.585937c0-20.101563 16.351562-36.453125 36.453125-36.453125h257.1875c20.101563 0 36.453125 16.351562 36.453125 36.453125zm0 0"/><path d="m306.039062 42.21875h-220.984374c-8.28125 0-15 6.714844-15 15v71.945312c0 8.285157 6.71875 15 15 15h220.984374c8.285157 0 15-6.714843 15-15v-71.945312c0-8.285156-6.714843-15-15-15zm-15 71.945312h-190.984374v-41.945312h190.984374zm0 0"/><path d="m137.695312 189.296875c0-8.453125-6.867187-15.308594-15.335937-15.308594s-15.332031 6.855469-15.332031 15.308594c0 8.457031 6.863281 15.308594 15.332031 15.308594s15.335937-6.851563 15.335937-15.308594zm0 0"/><path d="m203.3125 189.296875c0-8.453125-6.867188-15.308594-15.335938-15.308594s-15.335937 6.855469-15.335937 15.308594c0 8.457031 6.867187 15.308594 15.335937 15.308594s15.335938-6.851563 15.335938-15.308594zm0 0"/><path d="m268.929688 189.296875c0-8.453125-6.867188-15.308594-15.335938-15.308594s-15.335938 6.855469-15.335938 15.308594c0 8.457031 6.867188 15.308594 15.335938 15.308594s15.335938-6.851563 15.335938-15.308594zm0 0"/><path d="m137.695312 249.15625c0-8.457031-6.867187-15.308594-15.335937-15.308594s-15.332031 6.851563-15.332031 15.308594c0 8.453125 6.863281 15.308594 15.332031 15.308594s15.335937-6.855469 15.335937-15.308594zm0 0"/><path d="m203.3125 249.15625c0-8.457031-6.867188-15.308594-15.335938-15.308594s-15.335937 6.851563-15.335937 15.308594c0 8.453125 6.867187 15.308594 15.335937 15.308594s15.335938-6.855469 15.335938-15.308594zm0 0"/><path d="m268.929688 249.15625c0-8.457031-6.867188-15.308594-15.335938-15.308594s-15.335938 6.851563-15.335938 15.308594c0 8.453125 6.867188 15.308594 15.335938 15.308594s15.335938-6.855469 15.335938-15.308594zm0 0"/><path d="m137.695312 309.011719c0-8.453125-6.867187-15.308594-15.335937-15.308594s-15.332031 6.855469-15.332031 15.308594c0 8.457031 6.863281 15.308593 15.332031 15.308593s15.335937-6.851562 15.335937-15.308593zm0 0"/><path d="m203.3125 309.011719c0-8.453125-6.867188-15.308594-15.335938-15.308594s-15.335937 6.855469-15.335937 15.308594c0 8.457031 6.867187 15.308593 15.335937 15.308593s15.335938-6.851562 15.335938-15.308593zm0 0"/><path d="m268.929688 309.011719c0-8.453125-6.867188-15.308594-15.335938-15.308594s-15.335938 6.855469-15.335938 15.308594c0 8.457031 6.867188 15.308593 15.335938 15.308593s15.335938-6.851562 15.335938-15.308593zm0 0"/></svg>